<?xml version="1.0" encoding="utf-8"?>
<!-- Generator: Adobe Illustrator 16.0.0, SVG Export Plug-In . SVG Version: 6.00 Build 0)  -->
<!DOCTYPE svg PUBLIC "-//W3C//DTD SVG 1.1//EN" "http://www.w3.org/Graphics/SVG/1.1/DTD/svg11.dtd">
<svg version="1.1" id="レイヤー_1" xmlns="http://www.w3.org/2000/svg" xmlns:xlink="http://www.w3.org/1999/xlink" x="0px"
	 y="0px" width="64px" height="64px" viewBox="0 0 64 64" enable-background="new 0 0 64 64" xml:space="preserve">
<path fill-rule="evenodd" clip-rule="evenodd" fill="#625F6E" d="M31.363,32.019c-8.69-0.101-15.723-7.244-15.721-15.968
	c0.002-8.981,7.341-16.14,16.363-15.963c8.664,0.17,15.677,7.438,15.562,16.128C47.45,25.1,40.251,32.121,31.363,32.019z
	 M41.148,15.953c-0.06-5.272-4.311-9.481-9.564-9.471c-5.257,0.011-9.491,4.238-9.525,9.511c-0.035,5.4,4.328,9.72,9.724,9.626
	C37.034,25.528,41.209,21.22,41.148,15.953z"/>
<path fill-rule="evenodd" clip-rule="evenodd" fill="#625F6E" d="M31.686,38.398c3.611,0,7.224-0.065,10.834,0.013
	c9.378,0.202,15.967,6.76,16.206,16.087c0.052,2.018,0.037,4.037-0.006,6.055c-0.043,2.039-1.26,3.259-3.166,3.264
	c-1.903,0.005-3.135-1.197-3.184-3.242c-0.048-1.91,0.016-3.824-0.03-5.736c-0.141-6.041-4.015-9.982-9.992-10.035
	c-7.117-0.063-14.235-0.056-21.352-0.004c-6.176,0.046-10.028,3.969-10.133,10.215c-0.03,1.805-0.003,3.61-0.015,5.416
	c-0.013,2.035-1.156,3.327-3.057,3.383c-2.079,0.062-3.331-1.249-3.308-3.434c0.032-2.971-0.204-5.999,0.286-8.9
	c1.257-7.457,7.468-12.721,15.125-13.027c3.924-0.156,7.859-0.027,11.79-0.027C31.686,38.415,31.686,38.406,31.686,38.398z"/>
</svg>
